<?xml version="1.0" encoding="UTF-8"?>
<svg xmlns="http://www.w3.org/2000/svg" xmlns:xlink="http://www.w3.org/1999/xlink" width="130pt" height="112pt" viewBox="0 0 130 112" version="1.1">
<g id="surface0">
<path style="fill-rule:evenodd;fill:rgb(100%,57.3%,0%);fill-opacity:0.5;stroke-width:0.4;stroke-linecap:butt;stroke-linejoin:round;stroke:rgb(0%,0%,0%);stroke-opacity:0.5;stroke-miterlimit:10;" d="M 236.416636 328.143179 L 130.00648 373.049429 L 130.00648 373.049429 C 139.791636 396.229117 156.877574 415.584586 178.670543 428.166617 Z M 236.416636 328.143179 " transform="matrix(1,0,0,-1,-120.721324,428.865836)"/>
<path style="fill-rule:evenodd;fill:rgb(40%,63.9%,82.4%);fill-opacity:0.5;stroke-width:0.4;stroke-linecap:butt;stroke-linejoin:round;stroke:rgb(0%,0%,0%);stroke-opacity:0.5;stroke-miterlimit:10;" d="M 127.998668 319.998648 L 188.967418 425.596304 L 188.967418 425.596304 C 200.393199 418.998648 210.674449 410.588492 219.404918 400.697867 Z M 127.998668 319.998648 " transform="matrix(1,0,0,-1,-120.721324,428.865836)"/>
<path style="fill-rule:evenodd;fill:rgb(40%,63.9%,82.4%);fill-opacity:0.5;stroke-width:0.4;stroke-linecap:butt;stroke-linejoin:round;stroke:rgb(0%,0%,0%);stroke-opacity:0.5;stroke-miterlimit:10;" d="M 127.998668 319.998648 L 243.592418 358.811148 L 243.588511 358.811148 C 247.791636 346.303336 249.932261 333.193961 249.932261 319.998648 Z M 127.998668 319.998648 " transform="matrix(1,0,0,-1,-120.721324,428.865836)"/>
<path style="fill-rule:evenodd;fill:rgb(94.1%,42.4%,59.6%);fill-opacity:1;stroke-width:0.4;stroke-linecap:butt;stroke-linejoin:round;stroke:rgb(66.3%,66.3%,66.3%);stroke-opacity:1;stroke-miterlimit:10;" d="M 191.50648 405.928336 L 184.561168 417.963492 L 184.561168 417.963492 C 164.990855 406.666617 149.647105 389.283804 140.861949 368.467398 L 153.018199 363.334586 L 158.63148 373.053336 L 158.63148 373.053336 C 166.514293 386.709586 177.854136 398.045523 191.50648 405.928336 " transform="matrix(1,0,0,-1,-120.721324,428.865836)"/>
<path style="fill:none;stroke-width:0.4;stroke-linecap:butt;stroke-linejoin:round;stroke:rgb(66.3%,66.3%,66.3%);stroke-opacity:1;stroke-miterlimit:10;" d="M 127.998668 319.998648 L 240.338511 367.408804 " transform="matrix(1,0,0,-1,-120.721324,428.865836)"/>
<path style="fill:none;stroke-width:0.4;stroke-linecap:butt;stroke-linejoin:round;stroke:rgb(66.3%,66.3%,66.3%);stroke-opacity:1;stroke-miterlimit:10;" d="M 240.338511 367.404898 C 235.205699 379.565054 228.139293 390.807242 219.404918 400.697867 " transform="matrix(1,0,0,-1,-120.721324,428.865836)"/>
<path style="fill:none;stroke-width:0.4;stroke-linecap:butt;stroke-linejoin:round;stroke:rgb(0%,0%,0%);stroke-opacity:1;stroke-miterlimit:10;" d="M 140.861949 368.467398 C 149.647105 389.283804 164.990855 406.666617 184.561168 417.963492 " transform="matrix(1,0,0,-1,-120.721324,428.865836)"/>
<path style="fill:none;stroke-width:0.4;stroke-linecap:butt;stroke-linejoin:round;stroke:rgb(0%,0%,0%);stroke-opacity:1;stroke-dasharray:4;stroke-miterlimit:10;" d="M 236.416636 328.143179 L 158.63148 373.053336 " transform="matrix(1,0,0,-1,-120.721324,428.865836)"/>
<path style="fill:none;stroke-width:0.4;stroke-linecap:butt;stroke-linejoin:round;stroke:rgb(0%,0%,0%);stroke-opacity:1;stroke-miterlimit:10;" d="M 127.998668 319.998648 L 249.932261 319.998648 " transform="matrix(1,0,0,-1,-120.721324,428.865836)"/>
<path style="fill:none;stroke-width:0.4;stroke-linecap:butt;stroke-linejoin:round;stroke:rgb(0%,0%,0%);stroke-opacity:1;stroke-miterlimit:10;" d="M 127.998668 319.998648 L 188.967418 425.596304 " transform="matrix(1,0,0,-1,-120.721324,428.865836)"/>
<path style="fill:none;stroke-width:0.4;stroke-linecap:butt;stroke-linejoin:round;stroke:rgb(0%,0%,0%);stroke-opacity:1;stroke-miterlimit:10;" d="M 236.416636 328.143179 L 120.920543 328.143179 " transform="matrix(1,0,0,-1,-120.721324,428.865836)"/>
<path style="fill:none;stroke-width:0.4;stroke-linecap:butt;stroke-linejoin:round;stroke:rgb(0%,0%,0%);stroke-opacity:1;stroke-miterlimit:10;" d="M 236.416636 328.143179 L 178.670543 428.166617 " transform="matrix(1,0,0,-1,-120.721324,428.865836)"/>
<path style="fill-rule:evenodd;fill:rgb(100%,100%,100%);fill-opacity:1;stroke-width:0.8;stroke-linecap:butt;stroke-linejoin:round;stroke:rgb(0%,0%,0%);stroke-opacity:1;stroke-miterlimit:10;" d="M 185.772105 409.381461 L 127.998668 319.998648 " transform="matrix(1,0,0,-1,-120.721324,428.865836)"/>
<path style="fill:none;stroke-width:0.8;stroke-linecap:butt;stroke-linejoin:round;stroke:rgb(0%,0%,0%);stroke-opacity:1;stroke-miterlimit:10;" d="M 236.416636 328.143179 L 161.873668 385.100211 " transform="matrix(1,0,0,-1,-120.721324,428.865836)"/>
<path style="fill:none;stroke-width:0.4;stroke-linecap:butt;stroke-linejoin:round;stroke:rgb(0%,0%,0%);stroke-opacity:1;stroke-miterlimit:10;" d="M 158.63148 373.053336 C 166.514293 386.709586 177.854136 398.045523 191.50648 405.932242 " transform="matrix(1,0,0,-1,-120.721324,428.865836)"/>
<path style=" stroke:none;fill-rule:evenodd;fill:rgb(0%,0%,0%);fill-opacity:1;" d="M 9.078125 108.867188 C 9.078125 106.464844 5.480469 106.464844 5.480469 108.867188 C 5.480469 111.265625 9.078125 111.265625 9.078125 108.867188 Z M 9.078125 108.867188 "/>
<path style=" stroke:none;fill-rule:evenodd;fill:rgb(0%,0%,0%);fill-opacity:1;" d="M 66.851562 19.484375 C 66.851562 17.085938 63.25 17.085938 63.25 19.484375 C 63.25 21.882812 66.851562 21.882812 66.851562 19.484375 Z M 66.851562 19.484375 "/>
<path style=" stroke:none;fill-rule:evenodd;fill:rgb(0%,0%,0%);fill-opacity:1;" d="M 117.496094 100.722656 C 117.496094 98.320312 113.894531 98.320312 113.894531 100.722656 C 113.894531 103.121094 117.496094 103.121094 117.496094 100.722656 Z M 117.496094 100.722656 "/>
<path style=" stroke:none;fill-rule:evenodd;fill:rgb(0%,0%,0%);fill-opacity:1;" d="M 42.953125 43.765625 C 42.953125 41.363281 39.351562 41.363281 39.351562 43.765625 C 39.351562 46.164062 42.953125 46.164062 42.953125 43.765625 Z M 42.953125 43.765625 "/>
</g>
</svg>
